# xmcd
#
# Track frame offsets: 
#        150
#        13510
#        22512
#        33242
#        47210
#        58572
#        67837
#        80190
#        92175
#        105262
#
# Disc length: 1516 seconds
#
# Revision: 0
# Processed by: cddbd v1.5.2PL0 Copyright (c) Steve Scherf et al.
# Submitted via: ExactAudioCopyFreeDBPlugin 1.0
#
DISCID=6c05ea0a
DTITLE=Various Artist - Memories of a Country Christmas
DYEAR=1994
DGENRE=Christmas
TTITLE0=Gene Autry - Rudolph The Red-Nosed Reindeer
TTITLE1=Jack Greene - I'll Be Home For Christmas
TTITLE2=Kitty Wells - Away In a Manger
TTITLE3=David Houston - Silent Night
TTITLE4=Melba Montgomery - Hark the Herald Angels Sing
TTITLE5=Bobby Helms - Jingle Bell Rock
TTITLE6=Faron Young - O Come All Ye Faithfull
TTITLE7=Jimmy Dean - Blue Christmas
TTITLE8=Lee Greenwood - Oh Holy Night
TTITLE9=Dickey Lee - Go Tell It On The Mountain
EXTD=
EXTT0=
EXTT1=
EXTT2=
EXTT3=
EXTT4=
EXTT5=
EXTT6=
EXTT7=
EXTT8=
EXTT9=
PLAYORDER=
